<?xml version="1.0" encoding="UTF-8" standalone="no"?>
<svg
   xmlns:dc="http://purl.org/dc/elements/1.1/"
   xmlns:cc="http://creativecommons.org/ns#"
   xmlns:rdf="http://www.w3.org/1999/02/22-rdf-syntax-ns#"
   xmlns:svg="http://www.w3.org/2000/svg"
   xmlns="http://www.w3.org/2000/svg"
   xmlns:sodipodi="http://sodipodi.sourceforge.net/DTD/sodipodi-0.dtd"
   xmlns:inkscape="http://www.inkscape.org/namespaces/inkscape"
   sodipodi:docname="skulleyes.svg"
   inkscape:version="1.0 (4035a4fb49, 2020-05-01)"
   id="svg8"
   version="1.1"
   viewBox="0 0 4.0197821 4.0197821"
   height="4.0197821mm"
   width="4.0197821mm">
  <defs
     id="defs2" />
  <sodipodi:namedview
     inkscape:window-maximized="1"
     inkscape:window-y="-9"
     inkscape:window-x="2391"
     inkscape:window-height="1001"
     inkscape:window-width="1920"
     fit-margin-bottom="0"
     fit-margin-right="0"
     fit-margin-left="0"
     fit-margin-top="0"
     showgrid="false"
     inkscape:document-rotation="0"
     inkscape:current-layer="layer1"
     inkscape:document-units="mm"
     inkscape:cy="6.2616623"
     inkscape:cx="6.9982469"
     inkscape:zoom="64"
     inkscape:pageshadow="2"
     inkscape:pageopacity="0.0"
     borderopacity="1.0"
     bordercolor="#666666"
     pagecolor="#ffffff"
     id="base" />
  <metadata
     id="metadata5">
    <rdf:RDF>
      <cc:Work
         rdf:about="">
        <dc:format>image/svg+xml</dc:format>
        <dc:type
           rdf:resource="http://purl.org/dc/dcmitype/StillImage" />
        <dc:title></dc:title>
      </cc:Work>
    </rdf:RDF>
  </metadata>
  <g
     id="layer1"
     inkscape:groupmode="layer"
     inkscape:label="Layer 1">
    <path
       id="path849"
       d="M 1.042631,2.0938123 C 0.91802894,2.060316 0.83004177,1.9998526 0.79333598,1.9225009 0.74375327,1.8180131 0.74026639,1.4876678 0.78755393,1.3747122 0.85568921,1.2119579 1.0915591,1.055473 1.2687437,1.055473 c 0.1771847,0 0.4130545,0.1564849 0.4811898,0.3192392 0.046414,0.1108691 0.043822,0.443256 -0.00425,0.5445531 -0.06209,0.1308448 -0.167097,0.1757096 -0.4266959,0.1823078 -0.124362,0.00316 -0.248724,-3.314e-4 -0.27636,-0.00776 z m 1.4697328,4.045e-4 c -0.2332255,-0.093205 -0.27636,-0.1629643 -0.27636,-0.4469414 0,-0.1054451 0.01523,-0.2280985 0.033845,-0.2725632 0.068135,-0.1627543 0.3040051,-0.3192392 0.4811898,-0.3192392 0.1771847,0 0.4130544,0.1564849 0.4811897,0.3192392 0.018615,0.044465 0.033845,0.1671181 0.033845,0.2725632 0,0.3523216 -0.096999,0.4423757 -0.489911,0.454833 -0.124362,0.00394 -0.2430712,3.917e-4 -0.2637982,-0.00789 z"
       style="fill:#000000;stroke-width:0.0251236;stroke:#f228f2;stroke-opacity:1" />
  </g>
</svg>
